<svg width="36" height="36" viewBox="0 0 36 36" fill="none" xmlns="http://www.w3.org/2000/svg">
<path d="M7.49992 4.58301C5.86613 4.58301 4.58325 5.86589 4.58325 7.49967V23.2497C4.58325 24.8835 5.86613 26.1663 7.49992 26.1663H23.2499C24.8837 26.1663 26.1666 24.8835 26.1666 23.2497V9.1403L24.9999 10.4163V23.2497C24.9999 24.2409 24.2411 24.9997 23.2499 24.9997H7.49992C6.50871 24.9997 5.74992 24.2409 5.74992 23.2497V7.49967C5.74992 6.50846 6.50871 5.74967 7.49992 5.74967H22.9036L23.8879 4.6377C23.6555 4.6377 23.4823 4.58301 23.2499 4.58301H7.49992ZM24.5624 6.53353L14.4635 17.7627L9.63273 13.4788L8.86711 14.3538L14.1171 19.0205L14.5546 19.4033L14.9374 18.9658L25.4374 7.29915L24.5624 6.53353ZM27.3333 9.83301V10.9997H28.4999C29.4911 10.9997 30.2499 11.7585 30.2499 12.7497V28.4997C30.2499 29.4909 29.4911 30.2497 28.4999 30.2497H12.7499C11.7587 30.2497 10.9999 29.4909 10.9999 28.4997V27.333H9.83325V28.4997C9.83325 30.1335 11.1161 31.4163 12.7499 31.4163H28.4999C30.1337 31.4163 31.4166 30.1335 31.4166 28.4997V12.7497C31.4166 11.1159 30.1337 9.83301 28.4999 9.83301H27.3333Z" fill="white"/>
</svg>
