<svg width="32" height="32" viewBox="0 0 32 32" fill="none" xmlns="http://www.w3.org/2000/svg">
<path d="M6.85715 7.22767H5.83334V6.87489H11.4286H11.9286V6.37489V5.83325H20.0714V6.37489V6.87489H20.5714H26.1667V7.22767H25.1429H24.6429V7.72767V24.4818C24.6429 24.9598 24.4704 25.3436 24.1069 25.6663C23.7387 25.9932 23.2756 26.1666 22.6819 26.1666H9.3181C8.75176 26.1666 8.29141 25.9934 7.90824 25.6541C7.52849 25.3169 7.35715 24.9347 7.35715 24.4818V7.72767V7.22767H6.85715ZM24.1191 7.72767V7.22767H23.6191H8.38096H7.88096V7.72767V24.4818C7.88096 24.8621 8.02613 25.1993 8.31263 25.4537C8.59454 25.704 8.94364 25.8138 9.3181 25.8138H22.6819C23.0522 25.8138 23.3818 25.6723 23.6575 25.4288L23.6594 25.4271C23.9311 25.1847 24.1191 24.8672 24.1191 24.4818V7.72767ZM13.6836 10.9332V22.1082H13.1598V10.9332H13.6836ZM18.8402 10.9332V22.1082H18.3164V10.9332H18.8402Z" stroke="white"/>
</svg>
