<svg width="32" height="32" viewBox="0 0 32 32" fill="none" xmlns="http://www.w3.org/2000/svg">
<path d="M6 21.6091V23.9998C6 24.1766 6.07024 24.3462 6.19526 24.4712C6.32029 24.5962 6.48986 24.6665 6.66667 24.6665H9.05733C9.2338 24.6664 9.40306 24.5964 9.528 24.4718L20.8613 13.1385L17.528 9.80513L6.19467 21.1385C6.07004 21.2634 6.00004 21.4327 6 21.6091ZM20.12 7.21313L23.4533 10.5465L25.0573 8.94246C25.3073 8.69243 25.4477 8.35335 25.4477 7.9998C25.4477 7.64625 25.3073 7.30717 25.0573 7.05713L23.6093 5.60913C23.3593 5.35917 23.0202 5.21875 22.6667 5.21875C22.3131 5.21875 21.974 5.35917 21.724 5.60913L20.12 7.21313Z" stroke="white"/>
</svg>
