<svg width="30" height="30" viewBox="0 0 30 30" fill="none" xmlns="http://www.w3.org/2000/svg">
<path d="M10.7039 0C9.30703 0 8.37656 0.154688 7.77656 0.323438C7.47656 0.405469 7.25859 0.492188 7.10625 0.564844C6.95625 0.6375 6.83906 0.721875 6.83906 0.721875L6.6375 0.871875L6.60469 1.125C6.60469 1.125 6 5.92266 6 9C6 10.8516 6.90703 11.9555 7.71797 12.6234C8.12578 12.9586 8.50313 13.2094 8.73281 13.4133C8.9625 13.6172 9 13.6992 9 13.8C9 14.3648 8.85 16.0359 8.7 17.8898C8.55 19.7438 8.39766 21.8203 8.4 23.4C8.4 26.2547 8.59922 27.7922 9.00234 28.7508C9.20625 29.2289 9.4875 29.5781 9.83438 29.775C10.1789 29.9742 10.5305 30 10.8 30C11.0672 30 11.4211 29.9766 11.7656 29.7773C12.1125 29.5805 12.3961 29.2289 12.5977 28.7508C13.0008 27.7945 13.2023 26.2523 13.2 23.4C13.2 21.8227 13.05 19.7438 12.9 17.8898C12.7477 16.0359 12.6 14.3672 12.6 13.8C12.6 13.6969 12.6352 13.6219 12.8625 13.4227C13.0922 13.2234 13.4719 12.975 13.8773 12.6422C14.693 11.9789 15.6 10.8727 15.6 9C15.6 6.90703 14.9977 1.13906 14.9977 1.13906L14.9648 0.841406L14.7094 0.686719C14.7094 0.686719 14.3555 0.482813 13.7156 0.31875C13.0758 0.154688 12.1008 0 10.7039 0ZM18.6023 0C18.443 0 18.2906 0.0632814 18.1758 0.175781C18.0633 0.288281 18 0.440625 18 0.6V7.2C18 7.62188 18.0586 12.5977 18.0586 13.8914C18.0609 14.4445 17.8969 16.7297 17.7305 19.0945C17.5664 21.4594 17.4 23.9461 17.4 25.2C17.4 27.0164 17.4539 28.0734 17.6859 28.8164C17.8031 29.1867 17.9883 29.5102 18.2813 29.7164C18.5742 29.9227 18.9094 29.9719 19.2 29.9719C19.2 29.9742 19.2 29.9742 19.2 29.9719C19.8656 29.9719 20.7164 29.5523 21.2766 28.4695C21.8367 27.3844 22.2 25.6617 22.2 22.8C22.2 21.1898 21.8789 19.9406 21.5719 18.9633C21.2648 17.9836 21 17.2711 21 16.8C21 15.9609 21.6773 14.7469 22.4461 13.343C23.2172 11.9391 24.0422 10.3148 24.0445 8.44688C24.0445 8.44453 24.0445 8.44453 24.0445 8.44453C24.0445 7.39922 23.8781 5.81016 23.1422 4.21172C22.4062 2.61328 21.0773 1.00781 18.8367 0.0492188C18.7617 0.0164063 18.682 0 18.6023 0ZM10.7039 1.2C10.957 1.2 11.1797 1.20938 11.4 1.21875V7.2C11.3977 7.41563 11.5102 7.61719 11.6977 7.72734C11.8852 7.83516 12.1148 7.83516 12.3023 7.72734C12.4898 7.61719 12.6023 7.41563 12.6 7.2V1.32656C12.9234 1.37578 13.207 1.42734 13.418 1.48125C13.7461 1.56563 13.7438 1.58438 13.8305 1.62422C13.882 2.13047 14.4 7.2375 14.4 9C14.4 10.5188 13.807 11.1539 13.1203 11.7117C12.7781 11.993 12.4078 12.2273 12.0727 12.5203C11.7375 12.8133 11.4 13.2445 11.4 13.8C11.4 14.5477 11.5523 16.1391 11.7023 17.9883C11.8523 19.8352 12 21.9 12 23.4C12.0023 26.1914 11.7586 27.6516 11.4938 28.2844C11.3602 28.6008 11.2477 28.6922 11.1703 28.7367C11.093 28.7813 10.9922 28.8 10.8023 28.8H10.8C10.6102 28.8 10.5094 28.7813 10.432 28.7344C10.3523 28.6898 10.2422 28.5984 10.1086 28.2844C9.84375 27.6516 9.6 26.1914 9.6 23.4C9.59766 21.8977 9.74531 19.8352 9.89766 17.9883C10.0477 16.1414 10.2 14.5477 10.2 13.8C10.2 13.2422 9.86484 12.8133 9.53203 12.5156C9.19688 12.2203 8.82656 11.9813 8.48203 11.6977C7.79531 11.1305 7.2 10.493 7.2 9C7.2 6.25313 7.69922 2.10703 7.76016 1.59844C7.84922 1.56094 7.92891 1.52578 8.1 1.47656C8.31797 1.41563 8.62031 1.35469 9 1.30313V7.2C8.99766 7.41563 9.11016 7.61719 9.29766 7.72734C9.48516 7.83516 9.71484 7.83516 9.90234 7.72734C10.0898 7.61719 10.2023 7.41563 10.2 7.2V1.21406C10.3664 1.20938 10.5188 1.2 10.7039 1.2ZM19.2 1.71563C20.5641 2.54063 21.5273 3.57656 22.05 4.71328C22.6875 6.09609 22.8445 7.53047 22.8445 8.44688C22.8422 9.95391 22.1484 11.393 21.3938 12.7664C20.6414 14.1398 19.8 15.4148 19.8 16.8C19.8 17.6391 20.1352 18.3938 20.4281 19.3219C20.7188 20.25 21 21.3469 21 22.8C21 25.5563 20.6227 27.1195 20.2102 27.9188C19.7977 28.7156 19.4508 28.7719 19.2 28.7719C19.0359 28.7719 18.9938 28.7484 18.975 28.7367C18.9563 28.725 18.9 28.6781 18.832 28.4555C18.6914 28.0125 18.6 26.9836 18.6 25.2C18.6 24.0539 18.7641 21.5391 18.9281 19.1789C19.0922 16.8164 19.2609 14.6461 19.2586 13.8891C19.2586 12.5625 19.2 7.51406 19.2 7.2V1.71563Z" fill="white"/>
</svg>
