<svg width="30" height="30" viewBox="0 0 30 30" fill="none" xmlns="http://www.w3.org/2000/svg">
<g clip-path="url(#clip0_136_87976)">
<path d="M5.58674 0C3.82892 0 2.39924 1.42969 2.39924 3.1875V26.4H1.79924C1.78049 26.4 1.76174 26.4 1.74299 26.4C1.43361 26.4281 1.19689 26.6883 1.19924 27V29.4C1.19924 29.7305 1.46877 30 1.79924 30H21.5992C21.9297 30 22.1992 29.7305 22.1992 29.4V27C22.1992 26.6695 21.9297 26.4 21.5992 26.4H20.9992V16.2938C22.0516 16.5516 22.7992 17.4469 22.7992 18.6V21.6C22.7992 23.5945 24.4047 25.2 26.3992 25.2C28.3938 25.2 29.9992 23.5945 29.9992 21.6V11.6438C29.9992 10.9266 29.7086 10.2469 29.2305 9.76875L22.6305 3.16875L21.768 4.03125L25.1992 7.4625V12.3563C25.1992 13.0734 25.4899 13.7531 25.968 14.2313L28.7992 17.0625V21.6C28.7992 22.9664 27.7656 24 26.3992 24C25.0328 24 23.9992 22.9664 23.9992 21.6V18.6C23.9992 16.8094 22.7078 15.3398 20.9992 15.0563V3.1875C20.9992 1.42969 19.5695 0 17.8117 0H5.58674ZM5.58674 1.2H17.8117C18.9344 1.2 19.7992 2.06484 19.7992 3.1875V26.4H3.59924V3.1875C3.59924 2.06484 4.46408 1.2 5.58674 1.2ZM6.54299 2.4C5.58205 2.4 4.79924 3.18281 4.79924 4.14375V10.2563C4.79924 11.2172 5.58205 12 6.54299 12H16.8555C17.8164 12 18.5992 11.2172 18.5992 10.2563V4.14375C18.5992 3.18281 17.8164 2.4 16.8555 2.4H6.54299ZM6.54299 3.6H16.8555C17.0945 3.6 17.3992 3.90469 17.3992 4.14375V10.2563C17.3992 10.4953 17.0945 10.8 16.8555 10.8H6.54299C6.30392 10.8 5.99924 10.4953 5.99924 10.2563V4.14375C5.99924 3.90469 6.30392 3.6 6.54299 3.6ZM26.3992 8.6625L28.368 10.6313C28.6094 10.8727 28.7992 11.2805 28.7992 11.6438V15.3375L26.8305 13.3688C26.5891 13.1273 26.3992 12.7195 26.3992 12.3563V8.6625ZM2.39924 27.6H20.9992V28.8H2.39924V27.6Z" fill="white"/>
</g>
<defs>
<clipPath id="clip0_136_87976">
<rect width="30" height="30" fill="white"/>
</clipPath>
</defs>
</svg>
