<svg width="30" height="30" viewBox="0 0 30 30" fill="none" xmlns="http://www.w3.org/2000/svg">
<g clip-path="url(#clip0_136_87991)">
<path d="M1.0875 1.19995C1.06875 1.20464 1.05 1.21167 1.03125 1.2187C0.447656 1.30073 0 1.79526 0 2.39995C0 3.06323 0.536719 3.59995 1.2 3.59995C1.86328 3.59995 2.4 3.06323 2.4 2.39995H5.19375C5.94141 2.39995 6.33047 2.55464 6.61875 2.81245C6.90234 3.06792 7.13203 3.49917 7.33125 4.16245L12.1312 23.5312C12.3117 24.2179 12.4922 24.9257 12.9937 25.5C13.2023 25.739 13.4648 25.9335 13.7812 26.0812C13.4297 26.4984 13.2 27.0164 13.2 27.6C13.2 28.9195 14.2805 30 15.6 30C16.9195 30 18 28.9195 18 27.6C18 27.1593 17.8711 26.7562 17.6625 26.4H21.3375C21.1289 26.7562 21 27.1593 21 27.6C21 28.9195 22.0805 30 23.4 30C24.7195 30 25.8 28.9195 25.8 27.6C25.8 26.9835 25.5492 26.4328 25.1625 26.0062C25.2305 25.8234 25.2023 25.6171 25.0922 25.4578C24.9797 25.296 24.7969 25.2 24.6 25.2H15.4312C14.5055 25.2 14.1281 25.0031 13.875 24.7125C13.6242 24.4242 13.4719 23.9203 13.2937 23.25V23.2312L12.8812 21.6H23.8875C24.1383 21.6 24.3656 21.4429 24.45 21.2062L28.7625 9.8062C28.8328 9.62339 28.807 9.41714 28.6945 9.25542C28.582 9.0937 28.3969 8.99761 28.2 8.99995H26.7375C26.7305 8.99292 26.7258 8.98823 26.7187 8.9812L21.6375 3.89995C21.5133 3.76636 21.3328 3.69839 21.15 3.71245C21.0141 3.7312 20.8875 3.79917 20.7937 3.89995L18.825 5.88745L16.8375 3.89995C16.7133 3.76636 16.5328 3.69839 16.35 3.71245C16.2141 3.7312 16.0875 3.79917 15.9937 3.89995L10.9125 8.9812C10.9055 8.98823 10.9008 8.99292 10.8937 8.99995H9.76875L8.49375 3.8812C8.49375 3.86948 8.49375 3.85542 8.49375 3.8437C8.26406 3.07026 7.96641 2.39995 7.425 1.91245C6.88359 1.42495 6.12187 1.19995 5.19375 1.19995H1.2C1.18125 1.19995 1.1625 1.19995 1.14375 1.19995C1.125 1.19995 1.10625 1.19995 1.0875 1.19995ZM16.425 5.17495L18.2062 6.9562C18.2625 7.12964 18.3937 7.26558 18.5625 7.3312C18.5812 7.33823 18.6 7.34526 18.6187 7.34995L20.25 8.99995H12.5812L16.425 5.17495ZM21.225 5.17495L25.05 8.99995H21.9375C21.9305 8.99292 21.9258 8.98823 21.9187 8.9812L19.6687 6.7312L21.225 5.17495ZM10.0687 10.2H27.3375L23.475 20.4H12.6L10.0687 10.2ZM15.6 26.4C16.2703 26.4 16.8 26.9296 16.8 27.6C16.8 28.2703 16.2703 28.8 15.6 28.8C14.9297 28.8 14.4 28.2703 14.4 27.6C14.4 26.9296 14.9297 26.4 15.6 26.4ZM23.4 26.4C24.0703 26.4 24.6 26.9296 24.6 27.6C24.6 28.2703 24.0703 28.8 23.4 28.8C22.7297 28.8 22.2 28.2703 22.2 27.6C22.2 26.9296 22.7297 26.4 23.4 26.4Z" fill="white"/>
</g>
<defs>
<clipPath id="clip0_136_87991">
<rect width="30" height="30" fill="white"/>
</clipPath>
</defs>
</svg>
