<svg width="30" height="30" viewBox="0 0 30 30" fill="none" xmlns="http://www.w3.org/2000/svg">
<g clip-path="url(#clip0_136_87986)">
<path d="M15 0C12.0328 0 9.6 2.43281 9.6 5.4C9.6 8.36719 12.0328 10.8 15 10.8C17.9672 10.8 20.4 8.36719 20.4 5.4C20.4 2.43281 17.9672 0 15 0ZM15 1.2C17.3133 1.2 19.2 3.08672 19.2 5.4C19.2 7.71328 17.3133 9.6 15 9.6C12.6867 9.6 10.8 7.71328 10.8 5.4C10.8 3.08672 12.6867 1.2 15 1.2ZM15 2.8875C14.6016 2.8875 14.2875 3.20156 14.2875 3.6C14.2875 3.99844 14.6016 4.3125 15 4.3125C15.3984 4.3125 15.7125 3.99844 15.7125 3.6C15.7125 3.20156 15.3984 2.8875 15 2.8875ZM14.4 4.9875V7.8H15.6V4.9875H14.4ZM2.1 13.2C0.946875 13.2 0 14.1469 0 15.3V30H4.2V27.6H25.8V30H30V20.7C30 19.5469 29.0531 18.6 27.9 18.6C27.5719 18.6 27.2766 18.6891 27 18.825V18.6C27 17.6133 26.1867 16.8 25.2 16.8H13.2C12.2133 16.8 11.4 17.6133 11.4 18.6V23.4H4.2V15.3C4.2 14.1469 3.25313 13.2 2.1 13.2ZM2.1 14.4C2.625 14.4 3 14.775 3 15.3V24.6H27V20.7C27 20.175 27.375 19.8 27.9 19.8C28.425 19.8 28.8 20.175 28.8 20.7V28.8H27V26.4H3V28.8H1.2V15.3C1.2 14.775 1.575 14.4 2.1 14.4ZM7.8 16.8C6.15 16.8 4.8 18.15 4.8 19.8C4.8 21.45 6.15 22.8 7.8 22.8C9.45 22.8 10.8 21.45 10.8 19.8C10.8 18.15 9.45 16.8 7.8 16.8ZM7.8 18C8.80078 18 9.6 18.7992 9.6 19.8C9.6 20.8008 8.80078 21.6 7.8 21.6C6.79922 21.6 6 20.8008 6 19.8C6 18.7992 6.79922 18 7.8 18ZM13.2 18H25.2C25.5328 18 25.8 18.2672 25.8 18.6V23.4H12.6V18.6C12.6 18.2672 12.8672 18 13.2 18Z" fill="white"/>
</g>
<defs>
<clipPath id="clip0_136_87986">
<rect width="30" height="30" fill="white"/>
</clipPath>
</defs>
</svg>
