<svg width="30" height="30" viewBox="0 0 30 30" fill="none" xmlns="http://www.w3.org/2000/svg">
<g clip-path="url(#clip0_2472_5727)">
<path d="M21.7505 2.45314C21.602 2.45704 21.4477 2.46681 21.2974 2.48439C20.6977 2.55275 20.0786 2.71681 19.4849 2.93751C18.2974 3.37892 17.2036 4.04689 16.5005 4.75001C15.7407 5.50978 15.3677 6.43751 15.3755 7.39064C15.3813 8.21486 15.6899 9.04689 16.1411 9.84376L15.0005 11C14.852 11.1211 14.7837 11.3145 14.8266 11.502C14.8696 11.6875 15.0161 11.834 15.2016 11.877C15.3891 11.9199 15.5825 11.8516 15.7036 11.7031L17.1099 10.2969C17.2759 10.1289 17.3013 9.86915 17.1724 9.67189C16.6606 8.88087 16.3813 8.09962 16.3755 7.39064C16.3696 6.68165 16.6138 6.04298 17.2036 5.45314C17.7505 4.90626 18.7817 4.2715 19.8442 3.87501C20.5122 3.62697 21.1489 3.53322 21.7349 3.51564L19.8442 5.39064C19.8384 5.4004 19.8325 5.41212 19.8286 5.42189C19.3149 6.00783 19.2915 6.9004 19.8442 7.45314L22.5005 10.1094C22.5063 10.1152 22.5102 10.1192 22.5161 10.125C23.102 10.6387 23.9946 10.6621 24.5474 10.1094L26.438 8.21876C26.4224 8.81447 26.3286 9.45705 26.0786 10.125C25.6841 11.1817 25.0493 12.2012 24.5005 12.75C23.9106 13.3399 23.2837 13.5567 22.5786 13.5469C21.8735 13.5371 21.0747 13.2598 20.2505 12.7656C20.0532 12.6485 19.8032 12.6817 19.6411 12.8438L18.8442 13.6406C18.645 13.834 18.6431 14.1524 18.8364 14.3516C19.0298 14.5508 19.3481 14.5527 19.5474 14.3594L20.1099 13.7969C20.9224 14.2324 21.7388 14.5352 22.563 14.5469C23.5083 14.5606 24.4438 14.2129 25.2036 13.4531C25.9048 12.752 26.5747 11.666 27.0161 10.4844C27.4575 9.30275 27.6899 8.0215 27.3286 6.93751C27.272 6.77345 27.1352 6.65236 26.9673 6.6133C26.7974 6.57619 26.6216 6.62697 26.5005 6.75001L23.8442 9.39064C23.7036 9.53126 23.4145 9.5508 23.2036 9.39064C23.1938 9.38283 23.1821 9.38283 23.1724 9.37501L20.5474 6.75001C20.3989 6.60158 20.3911 6.29103 20.5786 6.07814L23.2036 3.45314C23.3266 3.33205 23.3774 3.15626 23.3403 2.98634C23.3013 2.81837 23.1802 2.68165 23.0161 2.62501C22.6157 2.48829 22.1938 2.43947 21.7505 2.45314ZM4.17235 2.50001C4.06688 2.51564 3.96727 2.56447 3.8911 2.64064L2.6411 3.89064C2.47899 4.05275 2.44579 4.30275 2.56298 4.50001L4.67235 8.15626C4.77782 8.32814 4.97313 8.41994 5.17235 8.39064L6.2661 8.21876L13.0474 15L12.7974 15.25C12.2446 15.8027 12.2446 16.6973 12.7974 17.25L13.1411 17.6094C13.5395 18.0078 14.0884 18.0059 14.5786 17.8438L15.4224 18.6719C15.3657 19.3457 15.563 20.0156 16.0474 20.5L22.1411 26.6094C23.3755 27.8438 25.3755 27.8438 26.6099 26.6094C26.6099 26.6035 26.6099 26.5996 26.6099 26.5938C27.7954 25.3477 27.811 23.3418 26.6099 22.1406L20.5005 16.0469C19.9966 15.543 19.3266 15.3867 18.6724 15.4219L17.8442 14.5781C18.0063 14.0879 18.0083 13.5391 17.6099 13.1406L17.2505 12.7969C16.9751 12.5215 16.6138 12.375 16.2505 12.375C15.8872 12.375 15.5259 12.5215 15.2505 12.7969L15.0005 13.0469L8.21923 6.26564L8.3911 5.17189C8.4204 4.97267 8.3286 4.77736 8.15673 4.67189L4.50048 2.56251C4.41454 2.51369 4.31688 2.4922 4.21923 2.50001C4.2036 2.50001 4.18798 2.50001 4.17235 2.50001ZM4.34423 3.62501L7.35985 5.35939L7.2036 6.37501C7.18212 6.52931 7.23485 6.68556 7.34423 6.79689L14.2974 13.75L13.7505 14.2969L6.79735 7.34376C6.68602 7.23439 6.52977 7.18165 6.37548 7.20314L5.35985 7.35939L3.62548 4.34376L4.34423 3.62501ZM16.2505 13.3906C16.3618 13.3906 16.4731 13.4258 16.5474 13.5L16.8911 13.8594C17.0552 14.0235 17.0532 14.2676 16.9224 14.4219C16.7485 14.6231 16.7622 14.9258 16.9536 15.1094L18.0942 16.25C18.2095 16.3652 18.3716 16.418 18.5317 16.3906C18.9946 16.3145 19.479 16.4317 19.7974 16.75L25.8911 22.8594C26.688 23.6563 26.6958 25.0352 25.8911 25.8906C25.0259 26.7559 23.7251 26.7559 22.8599 25.8906L16.7505 19.7969C16.4184 19.4649 16.2876 18.9942 16.3911 18.5781C16.436 18.4024 16.3813 18.2188 16.2505 18.0938L15.1099 16.9531C14.9263 16.7617 14.6235 16.7481 14.4224 16.9219C14.2681 17.0527 14.0239 17.0547 13.8599 16.8906L13.5005 16.5469C13.352 16.3985 13.352 16.1016 13.5005 15.9531L15.9536 13.5C16.0278 13.4258 16.1391 13.3906 16.2505 13.3906ZM11.3442 14.8906C11.2309 14.9063 11.1255 14.9629 11.0474 15.0469L8.67235 17.4219C8.33251 17.3555 7.99852 17.2969 7.65673 17.2969C4.83837 17.2969 2.54735 19.5879 2.54735 22.4063C2.54735 25.2246 4.83837 27.5 7.65673 27.5C10.4751 27.5 12.7505 25.2246 12.7505 22.4063C12.7505 22.041 12.6684 21.6797 12.5786 21.3281L14.2974 19.6094C14.4966 19.416 14.4985 19.0977 14.3052 18.8985C14.1118 18.6992 13.7934 18.6973 13.5942 18.8906L11.7036 20.7969C11.561 20.9336 11.5122 21.1426 11.5786 21.3281C11.7036 21.6602 11.7505 21.9942 11.7505 22.4063C11.7505 24.6875 9.93798 26.5 7.65673 26.5C5.37548 26.5 3.54735 24.6875 3.54735 22.4063C3.54735 20.125 5.37548 18.2969 7.65673 18.2969C8.01415 18.2969 8.37352 18.3477 8.73485 18.4375C8.90477 18.4746 9.08251 18.4219 9.2036 18.2969L11.7505 15.75C11.8989 15.6074 11.9438 15.3867 11.8638 15.1973C11.7856 15.0078 11.5962 14.8867 11.3911 14.8906C11.3755 14.8906 11.3599 14.8906 11.3442 14.8906ZM18.3599 17.6406L17.6411 18.3594L23.6411 24.3594L24.3599 23.6406L18.3599 17.6406ZM8.18798 19.5C8.16063 19.5039 8.13524 19.5078 8.10985 19.5156L5.7661 20.1719C5.60009 20.2188 5.46923 20.3496 5.42235 20.5156L4.7661 22.8594C4.71141 23.0371 4.76024 23.2285 4.8911 23.3594L6.6411 25.1094C6.76806 25.2344 6.9536 25.2832 7.12548 25.2344L9.53173 24.5781C9.70751 24.5332 9.84618 24.3945 9.8911 24.2188L10.4849 21.875C10.5337 21.7031 10.4849 21.5176 10.3599 21.3906L8.60985 19.6406C8.49852 19.5313 8.34227 19.4785 8.18798 19.5ZM8.09423 20.5625L9.43798 21.9063L8.98485 23.7031L7.15673 24.1875L5.81298 22.8438L6.29735 21.0469L8.09423 20.5625Z" fill="white"/>
</g>
<defs>
<clipPath id="clip0_2472_5727">
<rect width="25" height="25" fill="white" transform="translate(2.5 2.5)"/>
</clipPath>
</defs>
</svg>
