<svg width="30" height="30" viewBox="0 0 30 30" fill="none" xmlns="http://www.w3.org/2000/svg">
<path d="M14.9992 1.19995C7.3848 1.19995 1.19922 7.38553 1.19922 15C1.19922 22.6144 7.3848 28.7999 14.9992 28.7999C22.6136 28.7999 28.7992 22.6144 28.7992 15C28.7992 7.38553 22.6136 1.19995 14.9992 1.19995ZM14.9992 2.39995C21.9651 2.39995 27.5992 8.03406 27.5992 15C27.5992 21.9658 21.9651 27.5999 14.9992 27.5999C8.03332 27.5999 2.39922 21.9658 2.39922 15C2.39922 8.03406 8.03332 2.39995 14.9992 2.39995ZM10.1992 8.39995V9.59995H14.3992C16.1895 9.59995 17.6609 10.8932 17.9453 12.6H10.1992V13.8H17.9453C17.6609 15.5067 16.1895 16.8 14.3992 16.8H10.1992V18.2847L17.0195 23.864L17.7789 22.9359L11.7473 18H14.3992C16.8305 18 18.7684 16.1492 19.0773 13.8H19.1992H20.9992V12.6H19.1582C19.0085 11.4101 18.4209 10.3556 17.5621 9.59995H20.9992V8.39995H14.3992H10.1992Z" fill="white"/>
</svg>
