<svg width="18" height="19" viewBox="0 0 18 19" fill="none" xmlns="http://www.w3.org/2000/svg">
<path d="M4.52589 7.76757C4.4405 7.8434 4.33935 7.90299 4.22835 7.94286C4.11735 7.98274 3.99872 8.0021 3.8794 7.99982C3.76008 7.99754 3.64245 7.97365 3.5334 7.92957C3.42434 7.88548 3.32603 7.82207 3.24423 7.74305C3.16242 7.66402 3.09875 7.57097 3.05694 7.46932C3.01512 7.36766 2.996 7.25945 3.0007 7.15101C3.00539 7.04256 3.0338 6.93605 3.08426 6.8377C3.13473 6.73935 3.20624 6.65113 3.29462 6.57819L8.38497 2.22149C8.55153 2.07921 8.77147 2 9 2C9.22853 2 9.44847 2.07921 9.61503 2.22149L14.7054 6.57819C14.7938 6.65113 14.8653 6.73935 14.9157 6.8377C14.9662 6.93605 14.9946 7.04256 14.9993 7.15101C15.004 7.25945 14.9849 7.36766 14.9431 7.46932C14.9012 7.57097 14.8376 7.66402 14.7558 7.74305C14.674 7.82207 14.5757 7.88548 14.4666 7.92957C14.3575 7.97365 14.2399 7.99754 14.1206 7.99982C14.0013 8.0021 13.8827 7.98274 13.7717 7.94286C13.6607 7.90299 13.5595 7.8434 13.4741 7.76757L9.0006 3.93803L4.52589 7.76757Z" fill="white" fill-opacity="0.7"/>
<path d="M13.4741 11.2324C13.5595 11.1566 13.6607 11.097 13.7717 11.0571C13.8827 11.0173 14.0013 10.9979 14.1206 11.0002C14.2399 11.0025 14.3575 11.0263 14.4666 11.0704C14.5757 11.1145 14.674 11.1779 14.7558 11.257C14.8376 11.336 14.9012 11.429 14.9431 11.5307C14.9849 11.6323 15.004 11.7405 14.9993 11.849C14.9946 11.9574 14.9662 12.064 14.9157 12.1623C14.8653 12.2607 14.7938 12.3489 14.7054 12.4218L9.61503 16.7785C9.44847 16.9208 9.22853 17 9 17C8.77147 17 8.55153 16.9208 8.38497 16.7785L3.29462 12.4218C3.20624 12.3489 3.13473 12.2607 3.08426 12.1623C3.03379 12.064 3.00539 11.9574 3.00069 11.849C2.996 11.7405 3.01512 11.6323 3.05694 11.5307C3.09875 11.429 3.16242 11.336 3.24423 11.257C3.32603 11.1779 3.42434 11.1145 3.53339 11.0704C3.64245 11.0263 3.76008 11.0025 3.8794 11.0002C3.99872 10.9979 4.11735 11.0173 4.22835 11.0571C4.33935 11.097 4.4405 11.1566 4.52589 11.2324L8.9994 15.062L13.4741 11.2324Z" fill="white" fill-opacity="0.7"/>
</svg>
