<svg width="50" height="50" viewBox="0 0 50 50" fill="none" xmlns="http://www.w3.org/2000/svg">
<path d="M11.7168 1.02643C10.2635 1.18341 9 2.41124 9 4.003V19.3897C9 21.3782 10.1842 23.183 12.0078 23.9757L15.9062 25.669L12.123 27.2003C10.2386 27.9615 9 29.7949 9 31.8253V46.0049C9 48.0955 11.1833 49.5641 13.123 48.7823L38.4961 38.5538C40.0099 37.9432 41.0047 36.4662 40.998 34.835L41 15.5049V15.501C41.0009 15.0734 40.9088 14.6462 40.7402 14.2432H42.6582L38.7285 12.3526L38.709 12.3428C38.682 12.3298 13.1934 1.25104 13.1934 1.25104C12.7066 1.03939 12.2012 0.974108 11.7168 1.02643ZM11.8867 2.99714C12.0501 2.98442 12.2232 3.01163 12.3965 3.08698C12.3965 3.08698 37.8148 14.1306 37.8418 14.1436L38.0469 14.2432H38.0371L38.3633 14.4092C38.4601 14.4634 38.552 14.5315 38.6367 14.6163C38.8839 14.8635 39.0006 15.1784 39 15.4991C38.9984 15.8161 38.881 16.1259 38.6367 16.3702C38.5378 16.4691 38.366 16.5692 38.0977 16.6924C38.0947 16.6938 38.0949 16.695 38.0918 16.6964L36.4062 17.378L11 6.11823V4.003C11 3.43625 11.3965 3.03527 11.8867 2.99714ZM11 11.0753L30.5566 19.7432L18.5059 24.6182L12.8047 22.1417C11.7063 21.6643 11 20.5872 11 19.3897V11.0753ZM39 18.4659L38.998 34.8428V34.8448C39.0013 35.6617 38.5102 36.3929 37.748 36.7003L12.377 46.9268C11.6867 47.205 11 46.7424 11 46.0049V31.8253C11 30.6056 11.7375 29.5125 12.873 29.0538L38.9023 18.5245L38.9238 18.5147C38.9451 18.5049 38.9778 18.4762 39 18.4659Z" fill="white"/>
</svg>
